<svg xmlns="http://www.w3.org/2000/svg" viewBox="0 0 5544.4 1596.6" xmlns:v="https://vecta.io/nano"><path d="M4325.9 1038c-.7-16.7-12.4-25-32.2-24.1-40.6 1.8-71.8 48.3-70.5 77.8.7 16.7 11.4 26.3 31.3 25.4 40.8-1.9 72.8-49.5 71.4-79.1m-146.8 50.8c-.5-48.6 43.7-107.2 118.1-107.2 22.3 0 73.7 7.6 74.2 59.5.5 48.6-47.3 108.1-121.6 108.1-22.4.1-70.2-8.4-70.7-60.4m17.4-100.5l-16.2 33.3-50-.1-59 121.1h-48.4l59-121-61.8-.1 16.1-33.2zm-250.9 127.3l.8 26.9h45.1l-9.5-154.3h-44.1l-134.3 154.3h43.6l22.3-26.9zm-52.9-30.4l47.9-57.7 1.8 57.7zm-15.4-96.9l-16.1 33.3-50.2-.1-58.8 121.1h-48.4l59-121-61.9-.1 16.1-33.2zM3507 1101.1c14.1 6.3 35.5 15.2 61.3 17.2 23.2 1.8 47.7-1.2 47.5-16.5-.1-15.1-18.6-14.4-50.7-23.8-22.7-7-41.3-18.9-41.6-40.5-.2-24.5 19.6-61.3 99.8-55.2 18.4 1.5 46.8 7.5 61.7 13.3l-13.9 28.7c-20.4-6.6-27.1-9.5-50.9-11.4-29.2-2.3-45.7 1.5-45.6 12.1.1 11.9 18.5 13.7 37.1 17.8 27.1 6 53.9 15.9 52.4 49.2-1 24.4-21.6 62.7-100.3 56.7-32.2-2.5-54.1-10.6-71.2-18.2zm-138.5-63.1c-.8-16.7-12.5-25-32.3-24.1-40.7 1.8-71.8 48.3-70.5 77.8.8 16.7 11.4 26.3 31.3 25.4 40.9-1.9 72.9-49.5 71.5-79.1m-146.8 50.8c-.4-48.6 43.7-107.2 118-107.2 22.4 0 73.7 7.6 74.2 59.5.5 48.6-47.4 108.1-121.7 108.1-22.2.1-70-8.4-70.5-60.4m-37.8 53.8l16.1-33h-98.2l59-121.3h-48.3l-75.1 154.3zm-178 0l16.1-33h-92.7l59-121.3h-48.2l-75.2 154.3zm-240.5-95.5h79.6l-16 33.1h-79.7l-14.3 29.4h106.3l-16.1 33h-154.6l75.1-154.3h143.9l-16.1 33.1h-95.7zm-243.5 62.4l42.9-88h33.8c18.3 0 25.2 3.7 25.4 20.2.3 27.2-27 67.9-68.2 67.9h-33.9zm-64.4 33.1h101.2c84.9 0 112.8-69.3 112.5-102-.5-50.7-43.4-52.3-64.6-52.3h-74zm2990.9-303l-35.3 72.5h-376.6l172.1-353.3c1.8-4.1 2.8-8.8 2.8-13.8 0-4.7-1-9.1-2.7-13h335.8l-36.5 74.7c-4.2-8.7-12.1-14.6-21.1-14.6h-193.6l-44.1 90.7h195.7l-36.3 74.7c-4.2-8.7-12.2-14.6-21.3-14.6h-167.4L5166.8 852h243.3c9.6.1 30.5-5.2 38.3-12.4M5002.1 532c1.8 3.9 2.7 8.3 2.7 13.1 0 5-1 9.8-2.9 13.9l-171.8 353h101l185.2-380zm-389.1-.1l13 288.4L4838.5 559c2.9-3.6 4.7-8.4 4.6-13.9 0-5.1-1.6-9.8-4.3-13.2H4943L4618.8 912H4543l-16-353c-.7-11.9-5.9-22.2-14.3-27.1zm-253.6 110.2c-2.2-48.2-33.7-72.2-87.6-69.6-110.4 5.2-194.9 139.2-191.1 224.1 2.1 48.3 31.2 75.9 84.9 73.3 110.8-5.2 197.6-142.3 193.8-227.8m-372.6 136.6c-1.1-118.9 106.8-261.9 288.4-261.9 54.5 0 180.1 18.4 181.3 145.3 1.2 119-115.7 264.2-297.1 264.2-54.6.1-171.4-20.7-172.6-147.6m-520.4 133.4L3638.2 559c1.9-4.2 3-8.8 2.9-13.9 0-4.7-.9-9.2-2.6-13.1h202c39.1 0 113.2-1 113.9 89.2.8 80.8-78.5 128.1-112.1 132.7l30.8 130.8c3.2 14 11.9 23.5 18.6 27.4h-108.6l-33.6-157.2h-105.7l-76.5 157.2h-100.9zm391.1-290.9c-.1-11.9-9.8-28.8-33.5-28.8h-100.7l-50.1 102.4h94.6c53.9 0 90.1-34 89.7-73.6m-857.6 290.9L3171.7 559c1.9-4.2 2.9-8.8 2.9-13.9 0-4.7-.9-9.2-2.6-13.1h202c39 0 113.1-1 114 89.2.7 80.8-78.5 128.1-112.1 132.7l30.7 130.8c3.2 14 12 23.5 18.5 27.4h-108.5L3283 754.9h-105.7l-76.5 157.2h-100.9zM3391 621.2c-.1-11.9-9.8-28.8-33.5-28.8h-100.7l-50.1 102.4h94.5c53.9 0 90.2-34 89.8-73.6m-409.7 218.4l-35.3 72.5h-376.6l172-353.3c1.9-4.1 2.9-8.8 2.8-13.8 0-4.7-1-9.1-2.7-13h335.8l-36.4 74.7c-4.2-8.7-12.1-14.6-21.2-14.6h-193.5l-44.2 90.7h195.8l-36.4 74.7c-4.2-8.7-12.2-14.6-21.2-14.6h-167.4L2699.7 852H2943c9.7.1 30.7-5.2 38.3-12.4M2171.9 912L2344 558.8c1.9-4.1 2.9-8.9 2.8-13.9 0-4.7-1-9-2.7-13H2679l-36.4 74.7c-4.2-8.7-12.2-14.6-21.2-14.6h-192.7l-44.1 90.7h194.9l-36.4 74.7c-4.2-8.7-12.2-14.6-21.2-14.6h-166.6L2272.9 912zm112.3-762c-658 5.7-767.4 112.9-916.5 382.3l728 .3zm33.3-73.6L2356.8 0h-1079C912 0 725.3 123.7 611.8 352.9l-88.5 179.4h490.1C1187.7 198.6 1400 83.5 1919.3 76.4zM930.2 711l-513.3 52-346 685.8c273.6 0 414.1-26.6 574.1-254.6 67.6-97.7 187.3-291.9 285.2-483.2" fill="#006465"/><path d="M4716.8 1522.7l-35.4 73h-371l172.8-355.3c2-4 3-8.7 3-13.8 0-4.7-.9-9.1-2.5-13.1h330.9l-36.7 75.2c-4.1-8.7-11.8-14.8-20.8-14.8h-190.6l-44.5 91.2h193l-36.7 75.2c-4.1-8.7-11.8-14.7-20.8-14.7h-164.9l-53.3 109.6H4679c9.6 0 30.3-5.2 37.8-12.5m-709.9-257.1l12.3-25.3c2.1-4.2 3.2-8.9 3.2-13.9 0-4.7-1-9-2.7-13h99l92.9 265.6 116.3-238.7c2.1-4.2 3.1-8.9 3.1-13.9 0-4.7-.9-9.1-2.7-13h81.8l-186 382.2h-71.4l-98.9-284.5-138.2 284.5h-69.1zm-345.1-49.7c0 9.2-3.3 19.9-12.6 30.7l-301 349.2 86.6-.1 71.5-86.4h184.3l1.9 86.5h90.7l-19.3-379.9zm-104.6 231.6l129-155.9 3.1 155.9zm-201.4-234.1c1.5 4 2.6 8.4 2.6 13.2 0 5.2-1.1 9.9-3 14l-172.7 355.2h99.6l186.2-382.3h-112.7zm-227.3-.1L2973.7 1531h151c11.1 0 30.8-6.1 37.7-12.5l-37.7 77.5h-281.9l173.1-355.7c1.9-4.1 2.9-8.9 2.9-13.9 0-4.7-.8-9.1-2.5-13h112.2zm-446.9.2c0 9.4-3.5 20.1-12.7 30.9L2366 1595.7h87.1l71.8-87.1h185.5l1.9 87.1h91.3l-19.4-382.2zm-105.4 233.1l130-156.9 3 156.9zm-382.5-233.9h386.8l-36.7 75.9c-4.3-8.9-11.9-14.8-20.9-14.8h-102.3l-157.4 322.8h-100.1l157.4-322.8h-127.1c-11.9 0-26.2 6.7-36.7 14.9zm-185.7.8c1.7 3.9 2.6 8.3 2.6 13.1 0 5.1-1.1 9.9-2.9 14l-172.8 355.1h99.5l186.2-382.2H2008zm-421.4-119.8c-43.2 242.2-234.4 433.4-477 477.4 0 0-145.2 25.4-240.5 25.5H.1l33.5-68.3 333.8-2.3c101.5 2.3 285.3-19.9 285.3-19.9 207.5-21.9 370.8-157.1 422.7-353.7l58.4-198.3c31.8-164.4 176.6-288.8 350.6-288.8l563-35.6-26.9 53.9-173.5 10.7c-129.1 10.5-232.5 111.1-246.9 238.5z" fill="#d91023"/></svg>